<svg width="49" height="42" viewBox="0 0 49 42" fill="none" xmlns="http://www.w3.org/2000/svg">
<path fill-rule="evenodd" clip-rule="evenodd" d="M11.6091 38.316L0.488281 25.866L3.62651 22.4207L11.9951 28.1628L36.0549 0.600861L39.1931 2.89769L14.7672 38.1001C14.3991 38.6304 13.8393 38.959 13.2331 39.0004C12.627 39.0419 12.0343 38.7921 11.6091 38.316Z" fill="white"/>
<path opacity="0.497489" fill-rule="evenodd" clip-rule="evenodd" d="M47.5616 10.9366H42.3312C41.7535 10.9366 41.2852 10.4224 41.2852 9.78819C41.2852 9.15393 41.7535 8.63977 42.3312 8.63977H47.5616C48.1393 8.63977 48.6077 9.15393 48.6077 9.78819C48.6077 10.4224 48.1393 10.9366 47.5616 10.9366Z" fill="white"/>
<path opacity="0.497489" fill-rule="evenodd" clip-rule="evenodd" d="M47.5619 21.2723H35.009C34.4312 21.2723 33.9629 20.7582 33.9629 20.1239C33.9629 19.4897 34.4312 18.9755 35.009 18.9755H47.5619C48.1396 18.9755 48.608 19.4897 48.608 20.1239C48.608 20.7582 48.1396 21.2723 47.5619 21.2723Z" fill="white"/>
<path opacity="0.497489" fill-rule="evenodd" clip-rule="evenodd" d="M47.5617 31.6081H27.6862C27.1085 31.6081 26.6401 31.0939 26.6401 30.4597C26.6401 29.8254 27.1085 29.3112 27.6862 29.3112H47.5617C48.1394 29.3112 48.6077 29.8254 48.6077 30.4597C48.6077 31.0939 48.1394 31.6081 47.5617 31.6081Z" fill="white"/>
<path opacity="0.497489" fill-rule="evenodd" clip-rule="evenodd" d="M47.5619 41.9438H20.3639C19.7862 41.9438 19.3179 41.4296 19.3179 40.7954C19.3179 40.1611 19.7862 39.647 20.3639 39.647H47.5619C48.1397 39.647 48.608 40.1611 48.608 40.7954C48.608 41.4296 48.1397 41.9438 47.5619 41.9438Z" fill="white"/>
</svg>
